<?xml version="1.0" encoding="UTF-8"?>
<svg width="181px" height="70px" viewBox="0 0 181 70" version="1.1" xmlns="http://www.w3.org/2000/svg" xmlns:xlink="http://www.w3.org/1999/xlink">
    <!-- Generator: Sketch 47.1 (45422) - http://www.bohemiancoding.com/sketch -->
    <title>Artboard</title>
    <desc>Created with Sketch.</desc>
    <defs></defs>
    <g id="Page-1" stroke="none" stroke-width="1" fill="none" fill-rule="evenodd">
        <g id="Artboard">
            <text id="PRAGATI" font-family="Oswald-Medium, Oswald" font-size="25" font-weight="400" fill="#D81B61">
                <tspan x="74.0625" y="45">PRAGATI</tspan>
            </text>
            <g id="Group" transform="translate(5.000000, 4.000000)" fill-rule="nonzero">
                <g id="pragati">
                    <circle id="Oval" fill="#FFFFFF" cx="29.7641026" cy="29.7794872" r="29.7641026"></circle>
                    <path d="M31.9025641,58.8564103 C31.9025641,58.8564103 30.6564103,53.3333333 38.5282051,41.3179487 C38.5282051,41.3179487 45.9794872,30.3589744 37.3948718,16.3128205 C37.3948718,16.3128205 30.7282051,8.34358974 29.0205128,1.15384615 C29.0205128,1.15384615 28.4512821,8.04615385 22.4820513,18.2153846 C22.4820513,18.2153846 11.4,32.9589744 24.1282051,46.7641026 C24.1282051,46.7641026 30.8205128,53.9384615 31.9025641,58.8564103 Z" id="Shape" fill="#E81F64" style="mix-blend-mode: multiply;"></path>
                    <path d="M32.0974359,55.9435897 C32.0974359,55.9435897 31.3076923,52.4564103 36.2820513,44.8615385 C36.2820513,44.8615385 40.9897436,37.9333333 35.5641026,29.0564103 C35.5641026,29.0564103 31.3589744,24.0205128 30.2717949,19.4769231 C30.2717949,19.4769231 29.9128205,23.8307692 26.1384615,30.2461538 C26.1384615,30.2461538 19.1333333,39.5641026 27.1641026,48.2871795 C27.1794872,48.2974359 31.4153846,52.8205128 32.0974359,55.9435897 Z" id="Shape" fill="#D81B61" style="mix-blend-mode: multiply;"></path>
                    <g id="Layer_2-2" transform="translate(25.641026, 11.282051)" stroke="#FFFFFF" fill="#FFFFFF">
                        <g id="Layer_3-2">
                            <path d="M9.46666667,14.5538462 C9.50769231,13.7179487 9.2,17.7333333 3.10769231,24.025641 C3.10769231,24.025641 -3.25128205,30.8512821 4.6974359,42.6410256 C4.6974359,42.6410256 -0.943589744,30.0512821 5.08205128,24.0923077 C5.08205128,24.1025641 9.2,20 9.46666667,14.5538462 Z" id="Shape" stroke-width="0.45"></path>
                            <path d="M6.74871795,0.969230769 C6.44102564,0.456410256 6.74871795,3.53333333 6.74871795,3.53333333 C6.74871795,3.53333333 10.2205128,8.46666667 9.47179487,13.3487179 C9.46666667,13.3692308 11.1846154,8.45641026 6.74871795,0.969230769 Z" id="Shape" stroke-width="0.45"></path>
                            <path d="M4.76410256,23.2974359 C4.96410256,23.4307692 12.2820513,28.6666667 5.44102564,42.0461538 C5.44102564,42.0461538 13.4820513,31.1641026 6.97948718,21.6307692 L4.76410256,23.2974359 Z" id="Shape" stroke-width="0.45"></path>
                            <path d="M0.271794872,9.74358974 C0.271794872,9.74358974 -0.948717949,14.8717949 3.22564103,21.3179487 L3.65128205,18.6615385 C3.65128205,18.6615385 1.23589744,17.774359 0.271794872,9.74358974 Z" id="Shape" stroke-width="0.53"></path>
                            <path d="M0.4,8.02051282 C0.4,8.02051282 0.979487179,4.2974359 6.2,0.379487179 C6.2,0.379487179 0.835897436,6.09230769 1.23076923,10.0717949" id="Shape" stroke-width="0.45"></path>
                            <ellipse id="Oval" stroke-width="0.51" cx="5.41538462" cy="12.9589744" rx="1.35384615" ry="2.69230769"></ellipse>
                        </g>
                    </g>
                    <path d="M27.1794872,52.5025641 C13.8461538,51.4205128 3.22564103,40.2564103 3.22564103,26.6666667 C3.22012715,16.8473095 8.76315712,7.86768033 17.5435897,3.47179487 C5.0958226,9.28988531 -1.64398868,22.9701185 1.32823971,36.3851452 C4.30046811,49.800172 16.1878692,59.3533668 29.9282051,59.3692308 C30.3435897,59.3692308 30.7589744,59.3692308 31.174359,59.3435897" id="Shape" fill="#D81B61" style="mix-blend-mode: multiply;"></path>
                    <path d="M32.8717949,0 L32.8717949,0.0461538462 C47.3230769,3.46153846 56.9230769,16.8051282 54.4974359,30.6666667 C53.1076923,38.6564103 45.7794872,51.2512821 33.8461538,53.4307692 C32.7589744,59.0410256 33.1435897,57.2153846 32.7589744,59.0410256 C46.3435897,56.9076923 56.174359,47.7589744 58.4,34.8820513 C61.2,18.8564103 49.8205128,3.44615385 32.8717949,0 Z" id="Shape" fill="#D81B61" style="mix-blend-mode: multiply;"></path>
                </g>
            </g>
        </g>
    </g>
</svg>